<?xml version="1.0" standalone="no"?>
<!DOCTYPE svg PUBLIC "-//W3C//DTD SVG 20010904//EN"
 "http://www.w3.org/TR/2001/REC-SVG-20010904/DTD/svg10.dtd">
<svg version="1.0" xmlns="http://www.w3.org/2000/svg"
 width="369.000000pt" height="360.000000pt" viewBox="0 0 369.000000 360.000000"
 preserveAspectRatio="xMidYMid meet">

<g transform="translate(0.000000,360.000000) scale(0.100000,-0.100000)"
fill="#000000" stroke="none">
<path d="M1710 2867 c-26 -9 -38 -21 -47 -47 -15 -43 -16 -261 -3 -389 13
-116 32 -156 178 -352 59 -79 122 -165 141 -190 l33 -47 -136 -182 c-177 -236
-203 -287 -217 -427 -15 -146 -9 -454 10 -476 7 -9 30 -21 50 -27 39 -11 462
-14 524 -3 67 11 71 26 77 278 l5 220 82 115 c45 64 91 124 103 135 22 20 86
27 120 13 9 -3 56 -64 105 -134 l90 -129 5 -226 c6 -249 6 -251 69 -269 40
-11 501 -12 541 -1 51 14 60 56 60 271 -1 226 -11 319 -42 393 -12 28 -89 141
-171 250 l-148 198 23 32 c13 18 76 104 140 192 184 251 197 288 198 578 0
179 -9 210 -67 226 -49 14 -486 14 -535 1 -21 -6 -43 -21 -50 -33 -9 -14 -15
-83 -18 -197 l-5 -175 -82 -115 c-103 -146 -113 -155 -170 -155 -39 0 -49 5
-72 33 -63 74 -163 232 -171 268 -5 21 -10 105 -10 185 0 143 0 146 -26 170
l-26 24 -261 2 c-186 2 -272 -1 -297 -10z"/>
</g>
</svg>
